<?xml version="1.0" encoding="UTF-8" standalone="no"?><!DOCTYPE svg PUBLIC "-//W3C//DTD SVG 1.1//EN" "http://www.w3.org/Graphics/SVG/1.1/DTD/svg11.dtd"><svg width="100%" height="100%" viewBox="0 0 14250 2920" version="1.1" xmlns="http://www.w3.org/2000/svg" xmlns:xlink="http://www.w3.org/1999/xlink" xml:space="preserve" xmlns:serif="http://www.serif.com/" style="fill-rule:evenodd;clip-rule:evenodd;stroke-linejoin:round;stroke-miterlimit:2;"><g><g id="Logo"><rect x="0" y="0" width="14249.256" height="2919.521" style="fill:none;"/><g id="Icon-1" serif:id="Icon 1"><g><g><path d="M4137.255,2109.494c-117.5,0 -222.5,-30 -310,-87.5c-87.5,-57.5 -155,-137.5 -205,-235c-47.5,-97.5 -72.5,-207.5 -72.5,-330c0,-125 25,-235 77.5,-335c50,-95 122.5,-172.5 215,-230c92.5,-55 200,-82.5 325,-82.5c110,0 202.5,22.5 282.5,67.5c80,42.5 140,105 182.5,182.5l0,-730l175,0l0,1750l-160,0l-20,-257.5l-10,0c-22.5,52.5 -57.5,100 -100,142.5c-45,42.5 -100,77.5 -162.5,105c-62.5,27.5 -135,40 -217.5,40Zm27.5,-152.5c87.5,0 167.5,-20 235,-62.5c67.5,-42.5 122.5,-100 162.5,-175c40,-75 60,-162.5 60,-262.5c0,-102.5 -20,-192.5 -57.5,-265c-37.5,-75 -90,-132.5 -157.5,-170c-67.5,-40 -142.5,-60 -232.5,-60c-87.5,0 -162.5,20 -232.5,60c-67.5,37.5 -120,95 -157.5,170c-37.5,72.5 -57.5,162.5 -57.5,265c0,100 17.5,187.5 55,262.5c37.5,75 87.5,135 155,175c65,42.5 142.5,62.5 227.5,62.5Z" style="fill:#2d2d2c;fill-rule:nonzero;"/></g><g><path d="M5547.255,2109.494c-117.5,0 -220,-27.5 -310,-82.5c-90,-52.5 -160,-127.5 -212.5,-227.5c-52.5,-95 -77.5,-210 -77.5,-342.5c0,-132.5 25,-245 77.5,-342.5c50,-97.5 120,-172.5 212.5,-225c92.5,-52.5 197.5,-80 315,-80c120,0 222.5,27.5 307.5,80c85,55 150,125 195,212.5c45,87.5 67.5,180 67.5,280l0,52.5c0,17.5 0,40 -2.5,62.5l-1037.5,0l0,-150l870,0c-5,-122.5 -45,-217.5 -122.5,-285c-77.5,-67.5 -172.5,-102.5 -285,-102.5c-75,0 -145,17.5 -210,50c-65,32.5 -117.5,82.5 -157.5,147.5c-40,62.5 -60,142.5 -60,237.5l0,67.5c0,112.5 20,205 62.5,277.5c42.5,75 95,130 160,165c67.5,37.5 135,55 207.5,55c92.5,0 172.5,-22.5 235,-65c62.5,-42.5 107.5,-102.5 135,-180l170,0c-20,75 -55,142.5 -102.5,202.5c-47.5,60 -110,107.5 -182.5,140c-72.5,35 -157.5,52.5 -255,52.5Z" style="fill:#2d2d2c;fill-rule:nonzero;"/></g><g><path d="M6284.755,2079.494l0,-1240l160,0l20,210l10,0c37.5,-70 90,-127.5 155,-172.5c65,-45 147.5,-67.5 247.5,-67.5c52.5,0 105,7.5 157.5,22.5c50,15 97.5,42.5 140,80c42.5,37.5 77.5,92.5 105,162.5l10,0c32.5,-82.5 90,-147.5 167.5,-195c75,-47.5 160,-70 252.5,-70c87.5,0 167.5,20 237.5,57.5c67.5,37.5 122.5,97.5 162.5,175c40,80 60,182.5 60,305l0,732.5l-175,0l0,-712.5c0,-137.5 -27.5,-237.5 -82.5,-305c-55,-67.5 -132.5,-100 -232.5,-100c-67.5,0 -130,15 -187.5,47.5c-55,30 -97.5,75 -130,135c-32.5,60 -47.5,135 -47.5,222.5l0,712.5l-175,0l0,-712.5c0,-137.5 -27.5,-237.5 -82.5,-305c-55,-67.5 -132.5,-100 -232.5,-100c-67.5,0 -130,17.5 -187.5,55c-55,37.5 -97.5,90 -130,160c-32.5,70 -47.5,157.5 -47.5,260l0,642.5l-175,0Z" style="fill:#2d2d2c;fill-rule:nonzero;"/></g><g><path d="M9024.755,2109.494c-82.5,0 -155,-12.5 -217.5,-40c-62.5,-27.5 -117.5,-62.5 -160,-105c-42.5,-42.5 -77.5,-90 -102.5,-142.5l-10,0l-20,257.5l-160,0l0,-1750l175,0l0,730c42.5,-77.5 105,-140 185,-182.5c80,-45 172.5,-67.5 280,-67.5c125,0 232.5,27.5 325,82.5c95,57.5 165,135 217.5,230c50,100 75,210 75,335c0,122.5 -25,232.5 -72.5,330c-47.5,97.5 -117.5,177.5 -205,235c-90,57.5 -192.5,87.5 -310,87.5Zm-27.5,-152.5c90,0 165,-20 230,-62.5c65,-42.5 115,-100 152.5,-175c37.5,-75 55,-162.5 55,-262.5c0,-102.5 -20,-192.5 -57.5,-265c-37.5,-75 -90,-132.5 -157.5,-170c-67.5,-40 -145,-60 -232.5,-60c-87.5,0 -165,20 -232.5,57.5c-67.5,40 -120,97.5 -157.5,172.5c-37.5,75 -57.5,162.5 -57.5,265c0,100 20,187.5 60,262.5c40,75 95,135 162.5,175c70,42.5 147.5,62.5 235,62.5Z" style="fill:#2d2d2c;fill-rule:nonzero;"/></g><g><path d="M9759.755,2079.494l0,-1240l160,0l12.5,242.5l10,0c27.5,-57.5 60,-107.5 102.5,-147.5c42.5,-40 95,-70 155,-92.5c60,-22.5 127.5,-32.5 202.5,-32.5l0,182.5l-47.5,0c-57.5,0 -110,7.5 -162.5,22.5c-50,12.5 -95,37.5 -132.5,70c-37.5,35 -67.5,82.5 -92.5,137.5c-20,57.5 -32.5,130 -32.5,215l0,642.5l-175,0Z" style="fill:#2d2d2c;fill-rule:nonzero;"/></g><g><path d="M11014.755,2109.494c-117.5,0 -222.5,-27.5 -310,-85c-90,-57.5 -160,-135 -210,-232.5c-50,-97.5 -75,-210 -75,-335c0,-125 25,-235 77.5,-335c50,-95 122.5,-172.5 215,-230c92.5,-55 200,-82.5 325,-82.5c105,0 197.5,22.5 280,67.5c82.5,42.5 142.5,105 185,182.5l12.5,-220l162.5,0l0,1240l-160,0l-20,-270l-10,0c-40,82.5 -97.5,152.5 -175,210c-75,60 -175,90 -297.5,90Zm30,-152.5c87.5,0 165,-20 232.5,-62.5c67.5,-42.5 120,-100 157.5,-175c37.5,-72.5 57.5,-160 57.5,-260c0,-100 -20,-187.5 -57.5,-262.5c-37.5,-75 -90,-132.5 -157.5,-172.5c-67.5,-42.5 -142.5,-62.5 -232.5,-62.5c-87.5,0 -162.5,20 -232.5,62.5c-67.5,40 -120,97.5 -157.5,172.5c-37.5,75 -57.5,162.5 -57.5,262.5c0,100 20,187.5 57.5,262.5c37.5,72.5 92.5,132.5 160,172.5c67.5,42.5 142.5,62.5 230,62.5Z" style="fill:#2d2d2c;fill-rule:nonzero;"/></g><g><path d="M11849.755,2079.494l0,-1240l160,0l17.5,210l10,0c42.5,-77.5 100,-137.5 170,-177.5c70,-42.5 150,-62.5 242.5,-62.5c97.5,0 180,20 252.5,57.5c72.5,37.5 127.5,97.5 167.5,175c40,80 60,182.5 60,305l0,732.5l-175,0l0,-712.5c0,-137.5 -27.5,-237.5 -87.5,-305c-55,-67.5 -140,-100 -247.5,-100c-75,0 -142.5,17.5 -202.5,55c-60,37.5 -107.5,90 -140,160c-35,70 -52.5,157.5 -52.5,260l0,642.5l-175,0Z" style="fill:#2d2d2c;fill-rule:nonzero;"/></g><g><path d="M13652.255,2109.494c-117.5,0 -220,-27.5 -310,-82.5c-90,-52.5 -160,-127.5 -212.5,-227.5c-52.5,-95 -77.5,-210 -77.5,-342.5c0,-132.5 25,-245 77.5,-342.5c50,-97.5 120,-172.5 212.5,-225c92.5,-52.5 197.5,-80 315,-80c120,0 222.5,27.5 307.5,80c85,55 150,125 195,212.5c45,87.5 67.5,180 67.5,280l0,52.5c0,17.5 0,40 -2.5,62.5l-1037.5,0l0,-150l870,0c-5,-122.5 -45,-217.5 -122.5,-285c-77.5,-67.5 -172.5,-102.5 -285,-102.5c-75,0 -145,17.5 -210,50c-65,32.5 -117.5,82.5 -157.5,147.5c-40,62.5 -60,142.5 -60,237.5l0,67.5c0,112.5 20,205 62.5,277.5c42.5,75 95,130 160,165c67.5,37.5 135,55 207.5,55c92.5,0 172.5,-22.5 235,-65c62.5,-42.5 107.5,-102.5 135,-180l170,0c-20,75 -55,142.5 -102.5,202.5c-47.5,60 -110,107.5 -182.5,140c-72.5,35 -157.5,52.5 -255,52.5Z" style="fill:#2d2d2c;fill-rule:nonzero;"/></g></g></g><g><g><path d="M13.992,1620.561c-5.816,-52.633 -8.802,-106.114 -8.802,-160.287c0,-54.173 2.986,-107.653 8.802,-160.287c70.118,19.571 121.618,83.962 121.618,160.287c0,76.325 -51.501,140.716 -121.618,160.287Z" style="fill:#2d2d2c;"/></g><g><path d="M14.039,1299.564c0.141,-1.272 0.284,-2.543 0.428,-3.812c0.143,-1.27 0.29,-2.539 0.436,-3.807c6.348,-54.646 15.748,-108.368 28.026,-160.989c0.287,-1.229 0.575,-2.459 0.866,-3.688c0.29,-1.228 0.582,-2.458 0.875,-3.685c154.165,34.45 269.536,172.204 269.536,336.692c0,164.489 -115.37,302.243 -269.536,336.693c-0.293,-1.228 -0.585,-2.457 -0.875,-3.686c-0.291,-1.228 -0.579,-2.458 -0.866,-3.688c-12.278,-52.62 -21.678,-106.341 -28.026,-160.988c-0.146,-1.269 -0.293,-2.539 -0.436,-3.807c-0.144,-1.271 -0.287,-2.542 -0.428,-3.812c70.33,-19.598 121.993,-84.168 121.993,-160.711c0,-76.541 -51.663,-141.112 -121.993,-160.71Z" style="fill:#ffc2ff;"/></g><g><path d="M44.768,1123.172c12.695,-53.073 28.32,-105.013 46.694,-155.64c221.178,54.77 385.344,254.736 385.344,492.742c0,238.006 -164.166,437.973 -385.344,492.742c-18.374,-50.626 -33.999,-102.566 -46.694,-155.64c154.351,-34.494 269.858,-172.414 269.858,-337.102c0,-164.687 -115.508,-302.608 -269.858,-337.102Z" style="fill:#2d2d2c;"/></g><g><path d="M91.607,967.135c0.433,-1.193 0.869,-2.386 1.306,-3.579c0.436,-1.192 0.875,-2.385 1.315,-3.576c19.083,-51.673 41.034,-101.961 65.663,-150.671c0.643,-1.274 1.29,-2.546 1.938,-3.818c0.648,-1.273 1.298,-2.544 1.95,-3.813c284.316,83.972 492.043,347.217 492.043,658.596c0,311.379 -207.727,574.624 -492.043,658.597c-0.652,-1.27 -1.302,-2.542 -1.95,-3.813c-0.648,-1.272 -1.294,-2.545 -1.938,-3.819c-24.629,-48.709 -46.58,-98.997 -65.663,-150.67c-0.44,-1.192 -0.879,-2.384 -1.315,-3.577c-0.437,-1.192 -0.873,-2.385 -1.306,-3.579c221.34,-54.829 385.619,-254.952 385.619,-493.14c0,-238.188 -164.28,-438.309 -385.619,-493.14Z" style="fill:#ffc2ff;"/></g><g><path d="M163.778,801.678c26.049,-50.768 55.013,-99.798 86.672,-146.868c332.779,116.324 571.76,433.206 571.76,805.465c0,372.259 -238.981,689.142 -571.76,805.465c-31.658,-47.07 -60.623,-96.1 -86.672,-146.867c284.316,-83.973 492.043,-347.218 492.043,-658.597c0,-311.379 -207.727,-574.624 -492.043,-658.596Z" style="fill:#2d2d2c;"/></g><g><path d="M482.924,386.755c69.971,33.575 136.16,73.791 197.75,119.829c121.208,90.603 224.598,203.757 303.93,333.218c9.495,17.239 19.35,34.252 29.556,51.028c71.195,130.265 118.74,275.272 136.845,429.231c5.409,45.991 8.19,92.78 8.19,140.214c0,47.435 -2.781,94.224 -8.19,140.214c-18.105,153.96 -65.649,298.966 -136.845,429.231c-10.223,16.805 -20.094,33.847 -29.604,51.115c-72.556,131.76 -124.044,276.724 -149.91,430.339c-12.445,73.902 -18.958,149.807 -19.034,227.207l-0.001,1.376c0,6.501 0.045,12.991 0.136,19.47c-55.641,-27.289 -109.278,-58.049 -160.625,-91.996c0.393,-8.396 0.853,-16.773 1.38,-25.134c4.81,-76.27 15.215,-151.031 30.807,-223.878c31.855,-148.821 85.363,-289.652 157.063,-419.031c10.155,-16.446 19.859,-33.198 29.097,-50.241c78.79,-145.374 123.547,-311.837 123.547,-488.672c0,-176.834 -44.757,-343.296 -123.547,-488.671c-9.252,-17.072 -18.975,-33.854 -29.149,-50.327c-113.049,-183.037 -281.908,-328.021 -482.761,-411.139c37.973,-43.498 78.507,-84.705 121.365,-123.383Z" style="fill:#2d2d2c;"/></g><g><path d="M998.288,2833.697c-2.425,-30.997 -3.661,-62.326 -3.661,-93.941c0,-47.434 2.781,-94.223 8.19,-140.214c18.105,-153.959 65.649,-298.966 136.846,-429.231c10.205,-16.776 20.06,-33.789 29.555,-51.028c79.332,-129.461 182.722,-242.614 303.93,-333.218c74.362,-55.587 155.431,-102.686 241.766,-139.855c144.124,-62.05 302.923,-96.427 469.686,-96.427c167.759,0 328.51,-30.241 477.095,-85.563c71.711,-26.699 140.587,-59.241 206.05,-97.044c8.439,-4.873 16.822,-9.834 25.147,-14.881c2.638,35.651 3.979,71.66 3.979,107.981c0,25.866 -0.68,51.573 -2.024,77.107c-10.291,5.404 -20.65,10.693 -31.078,15.867c-67.072,33.285 -136.924,61.797 -209.111,85.09c-148.136,47.799 -306.105,73.623 -470.058,73.623c-369.654,0 -693.992,195.569 -875.098,488.797c-10.174,16.472 -19.896,33.254 -29.149,50.326c-78.79,145.375 -123.546,311.838 -123.546,488.672c0,46.871 3.145,93.014 9.233,138.228c-57.204,-11.455 -113.194,-26.289 -167.752,-44.287Z" style="fill:#2d2d2c;"/></g><g><path d="M1517.951,2904.591c-22.181,1.013 -44.491,1.524 -66.92,1.524c-34.934,0 -69.579,-1.242 -103.895,-3.683c-10.187,-52.665 -15.523,-107.053 -15.523,-162.677c0,-470.776 382.211,-852.987 852.987,-852.987c215.865,0 413.109,80.359 563.423,212.769c-25.322,51.231 -53.59,100.751 -84.584,148.336c-123.727,-120.471 -292.68,-194.717 -478.839,-194.717c-378.944,0 -686.599,307.655 -686.599,686.599c0,56.813 6.917,112.024 19.95,164.835Z" style="fill:#2d2d2c;"/></g><g><path d="M2663.438,2247.874c-0.78,1.198 -1.563,2.395 -2.347,3.59c-0.783,1.196 -1.569,2.39 -2.356,3.583c-30.27,45.88 -63.086,89.938 -98.241,131.97c-0.816,0.975 -1.633,1.95 -2.452,2.924c-0.818,0.973 -1.638,1.945 -2.459,2.916c-92.732,-99.119 -224.676,-161.105 -370.985,-161.105c-280.374,0 -508.003,227.628 -508.003,508.004c0,50.505 7.386,99.298 21.135,145.358c-1.254,0.215 -2.507,0.429 -3.762,0.642c-1.254,0.212 -2.508,0.423 -3.763,0.632c-53.625,8.942 -108.244,14.929 -163.685,17.786c-1.427,0.074 -2.856,0.145 -4.284,0.214c-1.428,0.07 -2.857,0.137 -4.286,0.202c-13.034,-52.812 -19.95,-108.022 -19.95,-164.835c0,-378.944 307.655,-686.599 686.599,-686.599c186.159,0 355.112,74.246 478.839,194.717Z" style="fill:#0ff;"/></g><g><path d="M2555.31,2393.18c-35.036,41.42 -72.356,80.845 -111.768,118.081c-63.309,-71.678 -155.885,-116.909 -258.943,-116.909c-190.633,0 -345.403,154.77 -345.403,345.404c0,37.931 6.128,74.441 17.446,108.595c-51.696,15.101 -104.585,27.39 -158.493,36.69c-13.748,-46.036 -21.131,-94.805 -21.131,-145.285c0,-280.143 227.44,-507.583 507.582,-507.583c146.205,0 278.055,61.95 370.711,161.008Z" style="fill:#2d2d2c;"/></g><g><path d="M2443.235,2511.55c-0.918,0.868 -1.838,1.733 -2.759,2.598c-0.92,0.865 -1.843,1.728 -2.766,2.591c-39.716,37.113 -81.524,72.014 -125.226,104.508c-1.019,0.758 -2.041,1.514 -3.062,2.27c-1.022,0.756 -2.046,1.51 -3.069,2.264c-30.447,-32.508 -73.745,-52.834 -121.755,-52.834c-92.064,0 -166.808,74.745 -166.808,166.809c0,16.637 2.44,32.708 6.982,47.875c-1.167,0.505 -2.334,1.009 -3.501,1.511c-1.167,0.502 -2.335,1.002 -3.503,1.501c-49.781,21.257 -100.994,39.8 -153.452,55.443c-1.21,0.361 -2.421,0.72 -3.634,1.078c-1.211,0.358 -2.423,0.714 -3.637,1.069c-11.307,-34.116 -17.429,-70.587 -17.429,-108.477c0,-190.401 154.582,-344.984 344.982,-344.984c102.937,0 195.405,45.181 258.636,116.777Z" style="fill:#0ff;"/></g><g><path d="M2306.011,2626.031c-86.758,63.764 -180.882,118.083 -280.849,161.431c-4.522,-15.115 -6.951,-31.129 -6.951,-47.706c0,-91.832 74.556,-166.388 166.388,-166.388c47.87,0 91.045,20.259 121.412,52.663Z" style="fill:#2d2d2c;"/></g><g><path d="M795.659,171.371c7.318,4.704 14.594,9.471 21.826,14.296c62.87,41.947 122.469,88.421 178.328,138.953c110.789,100.226 206.867,216.419 284.588,344.933c9.238,17.041 18.944,33.793 29.101,50.238c181.106,293.228 505.443,488.796 875.098,488.796c239.06,0 459.166,-81.794 633.837,-218.899c18.73,54.37 34.307,110.201 46.511,167.277c-65.69,45.891 -136.219,85.324 -210.662,117.375c-144.124,62.05 -302.923,96.427 -469.687,96.427c-166.763,0 -325.561,-34.377 -469.686,-96.427c-86.334,-37.17 -167.403,-84.268 -241.766,-139.855c-121.208,-90.603 -224.598,-203.757 -303.93,-333.218c-9.51,-17.268 -19.383,-34.308 -29.607,-51.113c-79.651,-130.91 -180.642,-247.432 -298.129,-344.718c-58.47,-48.417 -121.025,-92.068 -187.069,-130.36c-5.685,-3.296 -11.396,-6.552 -17.133,-9.77c50.584,-34.531 103.471,-65.936 158.379,-93.936Z" style="fill:#2d2d2c;"/></g><g><path d="M2663.438,672.676c30.994,47.585 59.262,97.105 84.584,148.336c-150.314,132.409 -347.557,212.769 -563.423,212.769c-470.776,0 -852.987,-382.211 -852.987,-852.987c0,-55.624 5.336,-110.011 15.523,-162.678c34.316,-2.442 68.962,-3.683 103.895,-3.683c22.429,0 44.739,0.512 66.92,1.524c-13.034,52.812 -19.95,108.023 -19.95,164.836c0,378.944 307.655,686.599 686.599,686.599c186.159,0 355.112,-74.246 478.839,-194.717Z" style="fill:#2d2d2c;"/></g><g><path d="M1517.951,15.958c1.429,0.066 2.858,0.133 4.286,0.202c1.428,0.07 2.857,0.141 4.284,0.215c55.44,2.857 110.06,8.843 163.685,17.785c1.255,0.21 2.509,0.42 3.763,0.633c1.255,0.212 2.508,0.426 3.762,0.642c-13.75,46.06 -21.135,94.853 -21.135,145.358c0,280.374 227.629,508.004 508.003,508.004c146.308,0 278.253,-61.986 370.985,-161.105c0.821,0.971 1.641,1.944 2.459,2.916c0.818,0.974 1.636,1.948 2.452,2.924c35.156,42.032 67.971,86.09 98.241,131.97c0.787,1.193 1.573,2.387 2.356,3.582c0.784,1.196 1.567,2.393 2.347,3.591c-123.727,120.471 -292.68,194.717 -478.839,194.717c-378.944,0 -686.599,-307.655 -686.599,-686.599c0,-56.813 6.917,-112.025 19.95,-164.836Z" style="fill:#1effa1;"/></g><g><path d="M1698.148,35.508c53.908,9.3 106.798,21.59 158.493,36.691c-11.318,34.154 -17.446,70.664 -17.446,108.595c0,190.633 154.771,345.404 345.403,345.404c103.058,0 195.634,-45.23 258.943,-116.909c39.412,37.235 76.732,76.661 111.768,118.081c-92.656,99.058 -224.505,161.007 -370.711,161.007c-280.142,0 -507.582,-227.44 -507.582,-507.582c0,-50.48 7.384,-99.251 21.131,-145.286Z" style="fill:#2d2d2c;"/></g><g><path d="M1857.046,72.317c1.213,0.355 2.425,0.71 3.637,1.069c1.212,0.358 2.423,0.717 3.634,1.078c52.458,15.643 103.671,34.185 153.452,55.442c1.169,0.499 2.337,1 3.503,1.502c1.168,0.502 2.335,1.006 3.501,1.511c-4.543,15.167 -6.982,31.238 -6.982,47.875c0,92.064 74.744,166.808 166.808,166.808c48.009,0 91.307,-20.326 121.755,-52.833c1.023,0.753 2.047,1.507 3.069,2.264c1.021,0.755 2.043,1.511 3.062,2.27c43.702,32.494 85.51,67.395 125.226,104.507c0.923,0.863 1.846,1.726 2.766,2.591c0.921,0.866 1.841,1.731 2.759,2.599c-63.231,71.597 -155.699,116.776 -258.636,116.776c-190.4,0 -344.982,-154.581 -344.982,-344.982c0,-37.889 6.122,-74.36 17.429,-108.477Z" style="fill:#1effa1;"/></g><g><path d="M2025.162,133.088c99.967,43.348 194.091,97.666 280.849,161.43c-30.367,32.404 -73.542,52.664 -121.412,52.664c-91.832,0 -166.388,-74.556 -166.388,-166.388c0,-16.577 2.43,-32.592 6.951,-47.706Z" style="fill:#2d2d2c;"/></g></g></g></g></svg>