<?xml version="1.0" encoding="UTF-8" standalone="no"?>
<!DOCTYPE svg PUBLIC "-//W3C//DTD SVG 1.1//EN" "http://www.w3.org/Graphics/SVG/1.1/DTD/svg11.dtd">
<svg width="100%" height="100%" viewBox="0 0 3334 3334" version="1.1" xmlns="http://www.w3.org/2000/svg" xmlns:xlink="http://www.w3.org/1999/xlink" xml:space="preserve" xmlns:serif="http://www.serif.com/" style="fill-rule:evenodd;clip-rule:evenodd;stroke-linejoin:round;stroke-miterlimit:2;">
    <g transform="matrix(1,0,0,1,-15556,0)">
        <g id="Logomark-no-bg" transform="matrix(1,0,0,1,-0.25,0)">
            <rect x="15556.25" y="0" width="3333.583" height="3333.508" style="fill:none;"/>
            <g transform="matrix(11.597283,-0.308381,0.308381,11.597283,14854.634708,-597.107696)">
                <g transform="matrix(1.050273,-0.093735,-0.094599,-1.05995,283.861665,409.572013)">
                    <path d="M-80.654,69.561C-80.736,70.993 -80.778,72.437 -80.778,73.89C-80.778,114.86 -47.565,148.073 -6.594,148.073C14.952,148.073 34.353,138.887 47.905,124.218C20.763,86.998 -24.911,64.49 -74.421,68.869C-76.514,69.054 -78.592,69.285 -80.654,69.561Z" style="fill:rgb(0,255,255);fill-rule:nonzero;"/>
                </g>
                <g transform="matrix(1.073714,-0.095827,-0.09701,-1.086975,290.694039,152.562773)">
                    <path d="M34.834,12.343C23.004,4.364 8.748,-0.294 -6.595,-0.294C-47.565,-0.294 -80.778,32.919 -80.778,73.889C-80.778,81.016 -79.773,87.908 -77.897,94.432C-77.529,94.402 -77.162,94.372 -76.794,94.339C-25.241,89.794 16.801,56.753 34.834,12.343Z" style="fill:rgb(30,255,161);fill-rule:nonzero;"/>
                </g>
                <g transform="matrix(0.876537,-0.53194,-0.53194,-0.876537,120.504827,232.083524)">
                    <path d="M-58.241,-8.105C-57.42,14.97 -50.859,38.162 -38.029,59.305C-24.006,82.412 -4.354,100.006 18.097,111.394C29.075,98.459 35.696,81.712 35.696,63.418C35.697,22.448 2.484,-10.764 -38.487,-10.764C-45.327,-10.765 -51.952,-9.839 -58.241,-8.105Z" style="fill:rgb(255,194,255);fill-rule:nonzero;"/>
                </g>
                <g transform="matrix(0.55102,-0.834492,-0.834492,-0.55102,62.036112,191.471667)">
                    <path d="M8.856,11.37C9.184,9.939 9.358,8.45 9.358,6.921C9.358,-4.029 0.468,-12.919 -10.482,-12.919C-15.236,-12.919 -19.601,-11.243 -23.02,-8.451C-19.224,-5.343 -15.232,-2.398 -11.048,0.364C-10.179,0.938 -9.306,1.501 -8.429,2.054C-7.917,2.27 -7.446,2.565 -7.031,2.923C-1.853,6.105 3.453,8.918 8.856,11.37Z" style="fill:rgb(45,45,44);"/>
                </g>
                <g transform="matrix(0.551012,-0.834497,-0.834497,-0.551012,92.869975,178.303145)">
                    <path d="M12.876,40.016C14.199,35.369 14.907,30.464 14.907,25.396C14.907,-4.059 -9.006,-27.973 -38.461,-27.973C-52.245,-27.973 -64.815,-22.736 -74.289,-14.145C-71.37,-10.296 -68.241,-6.575 -64.904,-3.002C-57.971,-9.461 -48.674,-13.415 -38.461,-13.415C-17.041,-13.415 0.349,3.976 0.349,25.396C0.349,29.269 -0.22,33.011 -1.278,36.541C3.402,37.948 8.126,39.105 12.876,40.016Z" style="fill:rgb(45,45,44);"/>
                </g>
                <g transform="matrix(0.551012,-0.834497,-0.834497,-0.551012,123.581132,165.186212)">
                    <path d="M18.764,60.809C19.86,55.307 20.434,49.618 20.434,43.796C20.434,-4.09 -18.443,-42.967 -66.329,-42.967C-86.245,-42.967 -104.604,-36.242 -119.254,-24.94C-117.275,-20.4 -115.055,-15.952 -112.601,-11.618C-100.067,-22.098 -83.929,-28.409 -66.329,-28.409C-26.478,-28.409 5.876,3.945 5.876,43.796C5.876,49.633 5.182,55.308 3.872,60.745C8.842,61.025 13.813,61.045 18.764,60.809Z" style="fill:rgb(45,45,44);"/>
                </g>
                <g transform="matrix(0.512412,-0.85874,-0.85874,-0.512412,395.71857,154.505273)">
                    <path d="M-283.399,136.974C-283.657,141.398 -283.707,145.82 -283.555,150.226C-283.517,151.335 -283.466,152.442 -283.402,153.549C-262.304,164.33 -238.405,170.41 -213.082,170.408L-213.075,170.408C-155.311,170.292 -108.408,217.023 -108.292,274.786C-108.285,278.3 -108.451,281.774 -108.783,285.199C-106.787,284.749 -104.801,284.255 -102.826,283.72C-99.818,282.906 -96.835,281.994 -93.884,280.985C-93.782,278.922 -93.733,276.846 -93.737,274.757C-93.869,208.957 -147.296,155.726 -213.096,155.853C-238.719,155.854 -262.734,148.98 -283.399,136.974Z" style="fill:rgb(45,45,44);"/>
                </g>
                <g transform="matrix(-0.998201,-0.059949,-0.059949,0.998201,268.132909,343.573307)">
                    <path d="M18.581,-8.072C18.912,-9.507 19.087,-11.002 19.087,-12.538C19.087,-23.488 10.197,-32.378 -0.753,-32.378C-5.507,-32.378 -9.872,-30.702 -13.29,-27.91C-8.707,-24.142 -3.883,-20.65 1.16,-17.462C1.775,-17.223 2.335,-16.871 2.814,-16.432C7.865,-13.334 13.129,-10.538 18.581,-8.072Z" style="fill:rgb(45,45,44);"/>
                </g>
                <g transform="matrix(-0.998202,-0.059939,-0.059939,0.998202,264.121364,376.859905)">
                    <path d="M48.58,-31.406C49.899,-36.046 50.605,-40.944 50.605,-46.005C50.605,-75.46 26.692,-99.373 -2.762,-99.373C-16.533,-99.373 -29.093,-94.146 -38.564,-85.57C-35.626,-81.698 -32.494,-77.978 -29.182,-74.424C-22.252,-80.87 -12.964,-84.815 -2.763,-84.815C18.657,-84.815 36.047,-67.425 36.047,-46.005C36.047,-42.134 35.479,-38.394 34.422,-34.865C39.043,-33.482 43.766,-32.325 48.58,-31.406Z" style="fill:rgb(45,45,44);"/>
                </g>
                <g transform="matrix(-0.998202,-0.059943,-0.059943,0.998202,260.125034,410.015059)">
                    <path d="M80.328,-62.325C81.424,-67.828 81.999,-73.518 81.999,-79.341C81.999,-127.226 43.122,-166.103 -4.764,-166.103C-24.685,-166.103 -43.047,-159.375 -57.7,-148.068C-55.702,-143.508 -53.473,-139.068 -51.025,-134.763C-38.493,-145.238 -22.359,-151.545 -4.764,-151.545C35.087,-151.545 67.441,-119.191 67.441,-79.341C67.441,-73.512 66.749,-67.844 65.443,-62.414C70.455,-62.127 75.421,-62.101 80.328,-62.325Z" style="fill:rgb(45,45,44);"/>
                </g>
                <g transform="matrix(-0.999896,-0.014392,-0.014392,0.999896,299.513533,443.128495)">
                    <path d="M-39.004,-249.59C-39.127,-247.482 -39.204,-245.36 -39.235,-243.228C-39.27,-240.731 -39.243,-238.25 -39.152,-235.783C-39.118,-234.862 -39.075,-233.943 -39.024,-233.027C-17.929,-222.248 5.968,-216.169 31.288,-216.171L31.295,-216.171C89.058,-216.287 135.962,-169.557 136.079,-111.793C136.086,-108.267 135.918,-104.781 135.584,-101.343C137.603,-101.797 139.606,-102.293 141.593,-102.831C144.596,-103.645 147.561,-104.554 150.484,-105.555C150.587,-107.631 150.638,-109.72 150.633,-111.822C150.501,-177.622 97.073,-230.853 31.274,-230.726C5.662,-230.725 -18.345,-237.594 -39.004,-249.59Z" style="fill:rgb(45,45,44);"/>
                </g>
                <g transform="matrix(0.447182,0.894443,0.894443,-0.447182,266.66405,66.426799)">
                    <path d="M30.577,10.049C30.902,8.624 31.074,7.141 31.074,5.617C31.074,-5.332 22.184,-14.222 11.234,-14.222C6.472,-14.222 2.099,-12.541 -1.322,-9.739C3.306,-5.943 8.151,-2.458 13.178,0.705C13.765,0.938 14.301,1.273 14.763,1.688C19.865,4.807 25.148,7.598 30.577,10.049Z" style="fill:rgb(45,45,44);"/>
                </g>
                <g transform="matrix(0.447192,0.894438,0.894438,-0.447192,239.843393,46.308111)">
                    <path d="M92.569,35.201C93.886,30.563 94.591,25.668 94.591,20.61C94.591,-8.845 70.678,-32.758 41.223,-32.758C27.445,-32.758 14.879,-27.525 5.406,-18.94C8.358,-15.036 11.488,-11.316 14.778,-7.784C21.711,-14.245 31.009,-18.2 41.223,-18.2C62.643,-18.2 80.033,-0.81 80.033,20.61C80.033,24.47 79.468,28.199 78.417,31.719C83.069,33.117 87.792,34.279 92.569,35.201Z" style="fill:rgb(45,45,44);"/>
                </g>
                <g transform="matrix(0.447191,0.894439,0.894439,-0.447191,213.128308,26.270091)">
                    <path d="M156.181,52.583C157.28,47.073 157.856,41.375 157.856,35.544C157.856,-12.342 118.979,-51.219 71.093,-51.219C51.182,-51.219 32.828,-44.498 18.179,-33.201C19.162,-30.959 20.206,-28.729 21.314,-26.514C22.439,-24.263 23.616,-22.054 24.842,-19.888C37.374,-30.358 53.503,-36.661 71.093,-36.661C110.944,-36.661 143.298,-4.307 143.298,35.544C143.298,41.381 142.604,47.056 141.294,52.493C146.234,52.781 151.203,52.813 156.181,52.583Z" style="fill:rgb(45,45,44);"/>
                </g>
                <g transform="matrix(0.487486,0.873131,0.873131,-0.487486,-75.133588,13.826095)">
                    <path d="M328.125,288.135C330.976,287.491 333.818,286.756 336.646,285.931C338.781,285.307 340.908,284.632 343.026,283.904C343.129,281.834 343.179,279.749 343.175,277.652C343.042,211.852 289.614,158.621 223.815,158.749C198.197,158.75 174.186,151.878 153.523,139.877C153.24,144.614 153.192,149.376 153.383,154.143C153.413,154.907 153.45,155.672 153.493,156.436C174.594,167.222 198.5,173.306 223.829,173.304L223.836,173.304C281.6,173.188 328.504,219.918 328.62,277.681C328.627,281.209 328.459,284.697 328.125,288.135Z" style="fill:rgb(45,45,44);"/>
                </g>
            </g>
        </g>
    </g>
</svg>
