<?xml version="1.0" encoding="UTF-8" standalone="no"?>
<!DOCTYPE svg PUBLIC "-//W3C//DTD SVG 1.1//EN" "http://www.w3.org/Graphics/SVG/1.1/DTD/svg11.dtd">
<svg width="100%" height="100%" viewBox="0 0 7498 2397" version="1.1" xmlns="http://www.w3.org/2000/svg" xmlns:xlink="http://www.w3.org/1999/xlink" xml:space="preserve" xmlns:serif="http://www.serif.com/" style="fill-rule:evenodd;clip-rule:evenodd;stroke-linejoin:round;stroke-miterlimit:2;">
    <g transform="matrix(1,0,0,1,0,-7716.71133)">
        <g id="Wordmark-no-padding" serif:id="Wordmark no padding" transform="matrix(4.757259,0,0,5.976613,0,7716.71133)">
            <rect x="0" y="0" width="1576.03" height="400.981" style="fill:none;"/>
            <g id="Icon-1" serif:id="Icon 1" transform="matrix(1.751709,0,0,1.394324,0,0)">
                <g transform="matrix(0.800876,0,0,0.725112,-311.604303,-26.394146)">
                    <g transform="matrix(1,0,0,1,0.449508,0)">
                        <path d="M450.796,319.437C438.509,319.437 427.813,316.116 418.708,309.473C409.603,302.83 402.554,293.89 397.561,282.652C392.568,271.415 390.071,258.844 390.071,244.939C390.071,230.749 392.658,218.071 397.832,206.905C403.005,195.738 410.373,186.941 419.935,180.512C429.496,174.084 440.797,170.87 453.836,170.87C465.255,170.87 475.019,173.453 483.127,178.62C491.235,183.786 497.423,190.584 501.691,199.012L501.691,116.014L520.704,116.014L520.704,316.009L503.761,316.009L501.691,287.152L500.656,287.152C497.94,293.295 494.211,298.783 489.469,303.616C484.726,308.449 479.121,312.294 472.655,315.152C466.188,318.009 458.901,319.437 450.796,319.437ZM454.224,301.152C463.321,301.152 471.35,298.807 478.313,294.116C485.276,289.426 490.762,282.854 494.772,274.4C498.781,265.947 500.786,256.126 500.786,244.939C500.786,233.466 498.846,223.539 494.966,215.157C491.085,206.774 485.732,200.345 478.905,195.869C472.079,191.393 464.141,189.155 455.093,189.155C446.063,189.155 438.11,191.393 431.234,195.869C424.357,200.345 418.99,206.762 415.131,215.119C411.272,223.476 409.343,233.38 409.343,244.832C409.343,256.141 411.218,266.017 414.967,274.461C418.717,282.904 423.968,289.463 430.72,294.139C437.473,298.814 445.307,301.152 454.224,301.152Z" style="fill:rgb(45,45,44);fill-rule:nonzero;"/>
                    </g>
                    <g transform="matrix(1,0,0,1,-1.947867,0)">
                        <path d="M601.153,319.437C589.038,319.437 578.303,316.342 568.948,310.152C559.592,303.961 552.23,295.295 546.863,284.152C541.495,273.01 538.811,259.939 538.811,244.939C538.811,229.892 541.452,216.845 546.734,205.797C552.015,194.75 559.409,186.167 568.915,180.048C578.422,173.929 589.34,170.87 601.67,170.87C614.13,170.87 624.779,173.965 633.617,180.155C642.455,186.346 649.224,194.405 653.923,204.333C658.623,214.261 660.972,224.987 660.972,236.511L660.972,242.546C660.972,244.665 660.886,247.058 660.714,249.725L553.362,249.725L553.362,232.225L642.412,232.225C641.895,218.416 637.745,207.655 629.963,199.94C622.181,192.226 612.513,188.369 600.959,188.369C593.285,188.369 586.128,190.25 579.489,194.012C572.849,197.774 567.492,203.309 563.418,210.619C559.344,217.928 557.307,227.035 557.307,237.939L557.307,245.725C557.307,258.248 559.42,268.665 563.645,276.974C567.87,285.283 573.345,291.462 580.071,295.509C586.796,299.557 593.824,301.58 601.153,301.58C610.638,301.58 618.592,299.152 625.016,294.295C631.44,289.438 636.031,282.724 638.791,274.153L657.351,274.153C655.238,282.771 651.66,290.509 646.616,297.366C641.571,304.223 635.245,309.616 627.635,313.544C620.026,317.473 611.198,319.437 601.153,319.437Z" style="fill:rgb(45,45,44);fill-rule:nonzero;"/>
                    </g>
                    <g transform="matrix(1,0,0,1,-0.899016,0)">
                        <path d="M676.493,316.009L676.493,174.298L693.695,174.298L695.765,198.155L696.799,198.155C700.852,189.917 706.295,183.31 713.128,178.334C719.962,173.358 728.315,170.87 738.188,170.87C744.008,170.87 749.57,171.786 754.873,173.62C760.175,175.453 764.972,178.536 769.262,182.87C773.551,187.203 777.097,193.179 779.9,200.798L780.934,200.798C784.685,191.274 790.473,183.905 798.298,178.691C806.123,173.477 814.907,170.87 824.651,170.87C833.877,170.87 842.079,173.072 849.258,177.477C856.436,181.881 862.095,188.631 866.234,197.726C870.372,206.821 872.442,218.416 872.442,232.511L872.442,316.009L853.494,316.009L853.494,234.868C853.494,219.488 850.691,208.012 845.087,200.44C839.482,192.869 831.441,189.084 820.965,189.084C813.981,189.084 807.675,190.786 802.049,194.191C796.423,197.595 792.004,202.69 788.792,209.476C785.58,216.261 783.974,224.725 783.974,234.868L783.974,316.009L764.961,316.009L764.961,234.868C764.961,219.488 762.159,208.012 756.554,200.44C750.949,192.869 743.016,189.084 732.756,189.084C725.944,189.084 719.692,191.155 714.001,195.298C708.31,199.44 703.805,205.452 700.485,213.333C697.166,221.214 695.506,230.963 695.506,242.582L695.506,316.009L676.493,316.009Z" style="fill:rgb(45,45,44);fill-rule:nonzero;"/>
                    </g>
                    <g transform="matrix(1,0,0,1,-1.49836,0)">
                        <path d="M963.044,319.437C954.982,319.437 947.706,318.009 941.218,315.152C934.729,312.294 929.157,308.449 924.501,303.616C919.845,298.783 916.072,293.295 913.184,287.152L912.149,287.152L910.08,316.009L893.136,316.009L893.136,116.014L912.149,116.014L912.149,199.012C916.547,190.584 922.795,183.786 930.893,178.62C938.992,173.453 948.695,170.87 960.004,170.87C973.046,170.87 984.355,174.084 993.932,180.512C1003.508,186.941 1010.875,195.738 1016.033,206.905C1021.19,218.071 1023.769,230.749 1023.769,244.939C1023.769,258.844 1021.279,271.415 1016.299,282.652C1011.32,293.89 1004.265,302.83 995.134,309.473C986.004,316.116 975.307,319.437 963.044,319.437ZM959.616,301.152C968.759,301.152 976.66,298.807 983.32,294.116C989.979,289.426 995.174,282.854 998.903,274.4C1002.632,265.947 1004.497,256.126 1004.497,244.939C1004.497,233.416 1002.568,223.476 998.709,215.119C994.851,206.762 989.519,200.345 982.716,195.869C975.912,191.393 967.931,189.155 958.772,189.155C949.85,189.155 941.934,191.392 935.024,195.867C928.114,200.341 922.724,206.775 918.856,215.168C914.988,223.56 913.054,233.502 913.054,244.993C913.054,256.195 915.049,266.017 919.038,274.461C923.028,282.904 928.535,289.463 935.559,294.139C942.584,298.814 950.603,301.152 959.616,301.152Z" style="fill:rgb(45,45,44);fill-rule:nonzero;"/>
                    </g>
                    <g transform="matrix(1,0,0,1,-1.348524,0)">
                        <path d="M1040.583,316.009L1040.583,174.298L1057.785,174.298L1059.272,202.798L1060.307,202.798C1063.454,195.226 1067.194,189.119 1071.527,184.477C1075.86,179.834 1081.034,176.405 1087.048,174.191C1093.062,171.977 1099.993,170.87 1107.839,170.87L1107.839,192.798L1102.73,192.798C1096.608,192.798 1090.906,193.655 1085.625,195.369C1080.344,197.083 1075.785,199.881 1071.948,203.762C1068.11,207.643 1065.093,212.773 1062.894,219.154C1060.695,225.535 1059.596,233.344 1059.596,242.582L1059.596,316.009L1040.583,316.009Z" style="fill:rgb(45,45,44);fill-rule:nonzero;"/>
                    </g>
                    <g transform="matrix(1,0,0,1,1.348524,0)">
                        <path d="M1171.474,319.437C1159.187,319.437 1148.458,316.187 1139.289,309.687C1130.119,303.188 1122.973,294.319 1117.851,283.081C1112.728,271.843 1110.167,259.129 1110.167,244.939C1110.167,230.749 1112.754,218.071 1117.928,206.905C1123.101,195.738 1130.469,186.941 1140.03,180.512C1149.592,174.084 1160.892,170.87 1173.931,170.87C1185.055,170.87 1194.744,173.453 1203,178.62C1211.257,183.786 1217.519,190.584 1221.787,199.012L1222.983,174.298L1240.8,174.298L1240.8,316.009L1223.856,316.009L1221.787,286.081L1220.752,286.081C1216.268,295.604 1209.981,303.545 1201.889,309.902C1193.797,316.259 1183.659,319.437 1171.474,319.437ZM1175.176,301.152C1184.219,301.152 1192.157,298.807 1198.991,294.116C1205.824,289.426 1211.181,282.89 1215.061,274.508C1218.941,266.125 1220.882,256.341 1220.882,245.153C1220.882,233.966 1218.941,224.146 1215.061,215.692C1211.181,207.239 1205.828,200.702 1199.001,196.083C1192.174,191.465 1184.237,189.155 1175.188,189.155C1166.159,189.155 1158.206,191.465 1151.329,196.083C1144.453,200.702 1139.085,207.226 1135.227,215.654C1131.368,224.083 1129.439,233.88 1129.439,245.046C1129.439,256.356 1131.373,266.196 1135.243,274.568C1139.112,282.94 1144.48,289.463 1151.346,294.139C1158.211,298.814 1166.155,301.152 1175.176,301.152Z" style="fill:rgb(45,45,44);fill-rule:nonzero;"/>
                    </g>
                    <g transform="matrix(1,0,0,1,-1.048852,0)">
                        <path d="M1261.494,316.009L1261.494,174.298L1278.696,174.298L1280.572,197.869L1281.606,197.869C1286.09,189.203 1291.953,182.536 1299.196,177.87C1306.439,173.203 1314.89,170.87 1324.547,170.87C1334.506,170.87 1343.193,173.072 1350.609,177.477C1358.024,181.881 1363.791,188.631 1367.908,197.726C1372.025,206.821 1374.084,218.416 1374.084,232.511L1374.084,316.009L1355.071,316.009L1355.071,234.868C1355.071,219.488 1352.128,208.012 1346.244,200.44C1340.359,192.869 1331.876,189.084 1320.796,189.084C1313.122,189.084 1306.235,191.155 1300.134,195.298C1294.034,199.44 1289.237,205.452 1285.745,213.333C1282.253,221.214 1280.507,230.963 1280.507,242.582L1280.507,316.009L1261.494,316.009Z" style="fill:rgb(45,45,44);fill-rule:nonzero;"/>
                    </g>
                    <g transform="matrix(1,0,0,1,-0.74918,0)">
                        <path d="M1451.946,319.437C1439.831,319.437 1429.096,316.342 1419.741,310.152C1410.385,303.961 1403.023,295.295 1397.656,284.152C1392.288,273.01 1389.604,259.939 1389.604,244.939C1389.604,229.892 1392.245,216.845 1397.527,205.797C1402.808,194.75 1410.202,186.167 1419.708,180.048C1429.215,173.929 1440.133,170.87 1452.463,170.87C1464.923,170.87 1475.572,173.965 1484.41,180.155C1493.248,186.346 1500.017,194.405 1504.716,204.333C1509.416,214.261 1511.765,224.987 1511.765,236.511L1511.765,242.546C1511.765,244.665 1511.679,247.058 1511.507,249.725L1404.155,249.725L1404.155,232.225L1493.205,232.225C1492.688,218.416 1488.538,207.655 1480.756,199.94C1472.974,192.226 1463.306,188.369 1451.752,188.369C1444.078,188.369 1436.921,190.25 1430.282,194.012C1423.642,197.774 1418.285,203.309 1414.211,210.619C1410.137,217.928 1408.1,227.035 1408.1,237.939L1408.1,245.725C1408.1,258.248 1410.213,268.665 1414.438,276.974C1418.663,285.283 1424.138,291.462 1430.864,295.509C1437.589,299.557 1444.617,301.58 1451.946,301.58C1461.431,301.58 1469.385,299.152 1475.809,294.295C1482.233,289.438 1486.824,282.724 1489.584,274.153L1508.144,274.153C1506.031,282.771 1502.453,290.509 1497.409,297.366C1492.364,304.223 1486.038,309.616 1478.428,313.544C1470.819,317.473 1461.991,319.437 1451.946,319.437Z" style="fill:rgb(45,45,44);fill-rule:nonzero;"/>
                    </g>
                </g>
            </g>
        </g>
    </g>
</svg>
